<svg xmlns="http://www.w3.org/2000/svg" viewBox="0 0 1400 800" role="img" aria-label="书页、山与河流组成的插画">
  <rect width="1400" height="800" fill="#fff7e8"/>
  <path d="M0 548c170-88 319-112 489-67 142 38 271 39 422-15 193-69 335-55 489 25v309H0z" fill="#dceee3"/>
  <path d="M0 640c207-44 374-34 518 28 126 54 250 54 393 0 168-63 326-66 489-16v148H0z" fill="#9fc8b4"/>
  <path d="M139 531c142-60 254-78 374-55 106 20 205 77 323 57 157-28 265-126 421-86 54 14 100 37 143 65v288H139z" fill="#f6d783"/>
  <path d="M172 245c98-38 198-56 300-56 111 0 214 28 310 84 113-56 224-84 333-84 88 0 171 17 250 52v360c-82-41-166-62-252-62-117 0-228 39-333 117-108-78-222-117-341-117-91 0-180 21-267 62z" fill="#ffffff" stroke="#23634f" stroke-width="10"/>
  <path d="M782 275v381" stroke="#23634f" stroke-width="9"/>
  <path d="M245 300c138-43 278-35 421 24M245 376c120-37 244-34 373 9M245 452c103-31 214-31 333 0M917 318c111-47 221-55 330-24M917 394c98-36 198-43 300-20M917 470c87-27 176-31 267-10" stroke="#e36f5b" stroke-width="10" stroke-linecap="round"/>
  <circle cx="1156" cy="121" r="58" fill="#f4b942"/>
</svg>
