<svg xmlns="http://www.w3.org/2000/svg" viewBox="0 0 800 600" role="img" aria-label="孩子翻看妈妈小时候照片">
  <rect width="800" height="600" fill="#fef9ed"/>
  <text x="400" y="55" text-anchor="middle" font-family="serif" font-size="30" font-weight="bold" fill="#7a3b14">看看妈妈</text>
  <rect x="250" y="130" width="300" height="220" rx="8" fill="#fff" stroke="#8d5a36" stroke-width="4"/>
  <rect x="270" y="150" width="260" height="180" rx="5" fill="#fef9ed" stroke="#c8843a" stroke-width="2"/>
  <circle cx="340" cy="210" r="25" fill="#e07856"/>
  <path d="M320 205 Q340 185 360 205" fill="#8d5a36"/>
  <rect x="320" y="230" width="40" height="50" rx="5" fill="#c84a3a"/>
  <path d="M335 230 L330 250 L350 250 L345 230" fill="#c8843a"/>
  <line x1="340" y1="250" x2="340" y2="280" stroke="#c84a3a" stroke-width="2"/>
  <circle cx="335" cy="207" r="2" fill="#7a3b14"/>
  <circle cx="345" cy="207" r="2" fill="#7a3b14"/>
  <path d="M333 218 Q340 222 347 218" stroke="#7a3b14" stroke-width="1.5" fill="none"/>
  <path d="M320 240 Q310 260 315 280" stroke="#8d5a36" stroke-width="2" fill="none"/>
  <path d="M360 240 Q370 260 365 280" stroke="#8d5a36" stroke-width="2" fill="none"/>
  <path d="M400 190 Q420 170 440 190 Q460 170 480 190" stroke="#6a8d3f" stroke-width="2" fill="none"/>
  <ellipse cx="410" cy="200" rx="10" ry="6" fill="#6a8d3f" transform="rotate(-20 410 200)"/>
  <ellipse cx="450" cy="195" rx="10" ry="6" fill="#4a6a2f" transform="rotate(15 450 195)"/>
  <ellipse cx="430" cy="210" rx="8" ry="5" fill="#6a8d3f"/>
  <circle cx="470" cy="260" r="15" fill="#e07856" opacity="0.6"/>
  <circle cx="470" cy="260" r="8" fill="#c84a3a" opacity="0.6"/>
  <text x="400" y="310" text-anchor="middle" font-family="serif" font-size="12" fill="#8d5a36">妈妈小时候</text>
  <circle cx="580" cy="380" r="20" fill="#c8843a"/>
  <rect x="565" y="398" width="30" height="45" rx="5" fill="#7ab8d8"/>
  <rect x="569" y="440" width="8" height="25" fill="#8d5a36"/>
  <rect x="583" y="440" width="8" height="25" fill="#8d5a36"/>
  <path d="M560 400 L545 420" stroke="#c8843a" stroke-width="3"/>
  <circle cx="540" cy="425" r="5" fill="#c8843a"/>
  <circle cx="573" cy="375" r="2" fill="#7a3b14"/>
  <circle cx="587" cy="375" r="2" fill="#7a3b14"/>
  <path d="M572 388 Q580 392 588 388" stroke="#7a3b14" stroke-width="1.5" fill="none"/>
  <rect x="200" y="400" width="120" height="80" rx="5" fill="#fff" stroke="#8d5a36" stroke-width="2" opacity="0.7"/>
  <rect x="210" y="410" width="100" height="60" rx="3" fill="#fef9ed" stroke="#c8843a" stroke-width="1" opacity="0.7"/>
  <circle cx="240" cy="430" r="10" fill="#e07856" opacity="0.4"/>
  <rect x="232" y="438" width="16" height="20" rx="3" fill="#c84a3a" opacity="0.4"/>
  <path d="M270 425 Q285 415 300 425" stroke="#6a8d3f" stroke-width="1.5" fill="none" opacity="0.4"/>
  <text x="400" y="510" text-anchor="middle" font-family="serif" font-size="18" fill="#7a3b14">妈妈也曾是个小孩子</text>
  <text x="400" y="540" text-anchor="middle" font-family="serif" font-size="16" fill="#4a6a2f">照片里藏着温暖的回忆</text>
</svg>
