<svg xmlns="http://www.w3.org/2000/svg" viewBox="0 0 800 600" role="img" aria-label="小朋友拍手游戏与各种动物">
  <rect width="800" height="600" fill="#fef9ed"/>
  <text x="400" y="55" text-anchor="middle" font-family="serif" font-size="30" font-weight="bold" fill="#7a3b14">拍手歌</text>
  <ellipse cx="400" cy="300" rx="120" ry="100" fill="#6a8d3f" opacity="0.15"/>
  <circle cx="280" cy="280" r="30" fill="#e07856"/>
  <rect x="260" y="305" width="40" height="55" rx="8" fill="#c84a3a"/>
  <circle cx="310" cy="305" r="12" fill="#e07856"/>
  <circle cx="340" cy="280" r="30" fill="#c8843a"/>
  <rect x="320" y="305" width="40" height="55" rx="8" fill="#7ab8d8"/>
  <circle cx="370" cy="305" r="12" fill="#c8843a"/>
  <line x1="322" y1="280" x2="298" y2="280" stroke="#8d5a36" stroke-width="4"/>
  <ellipse cx="150" cy="200" rx="35" ry="25" fill="#c8843a"/>
  <circle cx="135" cy="190" r="18" fill="#e07856"/>
  <path d="M120 178 L115 165 L125 172z" fill="#8d5a36"/>
  <path d="M145 178 L150 165 L140 172z" fill="#8d5a36"/>
  <circle cx="130" cy="188" r="3" fill="#7a3b14"/>
  <circle cx="142" cy="188" r="3" fill="#7a3b14"/>
  <ellipse cx="650" cy="200" rx="30" ry="35" fill="#6a8d3f"/>
  <circle cx="650" cy="170" r="20" fill="#4a6a2f"/>
  <circle cx="643" cy="167" r="4" fill="#fef9ed"/>
  <circle cx="657" cy="167" r="4" fill="#fef9ed"/>
  <circle cx="643" cy="167" r="2" fill="#7a3b14"/>
  <circle cx="657" cy="167" r="2" fill="#7a3b14"/>
  <path d="M580 250 Q600 230 620 250 Q640 230 660 250 Q680 230 700 250" stroke="#7ab8d8" stroke-width="4" fill="none"/>
  <path d="M580 270 Q600 250 620 270 Q640 250 660 270 Q680 250 700 270" stroke="#a8d0e8" stroke-width="3" fill="none"/>
  <ellipse cx="200" cy="420" rx="40" ry="30" fill="#fff" stroke="#8d5a36" stroke-width="2"/>
  <circle cx="190" cy="410" r="15" fill="#fff" stroke="#8d5a36" stroke-width="2"/>
  <circle cx="185" cy="408" r="3" fill="#7a3b14"/>
  <circle cx="195" cy="408" r="3" fill="#7a3b14"/>
  <ellipse cx="175" cy="415" rx="8" ry="5" fill="#7a3b14"/>
  <ellipse cx="225" cy="415" rx="8" ry="5" fill="#7a3b14"/>
  <ellipse cx="550" cy="420" rx="45" ry="30" fill="#c8843a"/>
  <circle cx="540" cy="405" r="18" fill="#e07856"/>
  <path d="M525 392 L520 378 L532 388z" fill="#8d5a36"/>
  <path d="M555 392 L560 378 L548 388z" fill="#8d5a36"/>
  <circle cx="535" cy="403" r="3" fill="#7a3b14"/>
  <circle cx="547" cy="403" r="3" fill="#7a3b14"/>
  <text x="400" y="540" text-anchor="middle" font-family="serif" font-size="18" fill="#4a6a2f">你拍一我拍一 保护动物要牢记</text>
</svg>
