<svg xmlns="http://www.w3.org/2000/svg" viewBox="0 0 800 600" role="img" aria-label="小朋友牵着妈妈手走在乡间小路去外婆家">
  <rect width="800" height="600" fill="#fef9ed"/>
  <text x="400" y="55" text-anchor="middle" font-family="serif" font-size="30" font-weight="bold" fill="#7a3b14">去外婆家</text>
  <path d="M0 400c100-20 200-15 300 5s200 20 300 0 150-15 200-5v200H0z" fill="#6a8d3f" opacity="0.3"/>
  <path d="M100 380 Q200 360 300 380 Q400 400 500 380 Q600 360 700 385" stroke="#8d5a36" stroke-width="6" fill="none" stroke-dasharray="15 10"/>
  <path d="M50 350c30-20 60-25 90-10 20 10 30 25 25 45-5 18-20 28-40 25-25-4-45-20-50-40-3-12 0-18 5-20z" fill="#4a6a2f" opacity="0.4"/>
  <path d="M620 340c25-15 50-18 75-8 18 7 28 20 25 35-3 15-18 22-35 20-22-3-40-15-50-30-5-10-8-18-3-22z" fill="#4a6a2f" opacity="0.4"/>
  <path d="M120 320 Q140 280 160 320 Q180 280 200 320" stroke="#8d5a36" stroke-width="3" fill="none"/>
  <circle cx="160" cy="310" r="8" fill="#c84a3a"/>
  <path d="M650 310 Q670 270 690 310 Q710 270 730 310" stroke="#8d5a36" stroke-width="3" fill="none"/>
  <circle cx="690" cy="300" r="8" fill="#e07856"/>
  <path d="M380 420 Q420 410 460 420" stroke="#7ab8d8" stroke-width="5" fill="none"/>
  <path d="M380 435 Q420 425 460 435" stroke="#a8d0e8" stroke-width="4" fill="none"/>
  <circle cx="350" cy="320" r="22" fill="#c8843a"/>
  <rect x="332" y="340" width="36" height="55" rx="6" fill="#e07856"/>
  <rect x="338" y="390" width="10" height="35" fill="#8d5a36"/>
  <rect x="352" y="390" width="10" height="35" fill="#8d5a36"/>
  <circle cx="395" cy="350" r="16" fill="#e07856"/>
  <rect x="382" y="365" width="26" height="40" rx="5" fill="#7ab8d8"/>
  <rect x="386" y="400" width="8" height="28" fill="#8d5a36"/>
  <rect x="396" y="400" width="8" height="28" fill="#8d5a36"/>
  <line x1="368" y1="360" x2="382" y2="370" stroke="#8d5a36" stroke-width="3"/>
  <rect x="560" y="300" width="100" height="80" rx="5" fill="#c8843a" opacity="0.6"/>
  <polygon points="555,300 610,260 665,300" fill="#c84a3a"/>
  <rect x="595" y="340" width="25" height="40" fill="#8d5a36"/>
  <rect x="570" y="315" width="20" height="20" fill="#a8d0e8"/>
  <rect x="625" y="315" width="20" height="20" fill="#a8d0e8"/>
  <path d="M560 380 Q610 390 660 380" stroke="#8d5a36" stroke-width="2" fill="none"/>
  <text x="400" y="540" text-anchor="middle" font-family="serif" font-size="18" fill="#4a6a2f">外婆家就在前方</text>
</svg>
