<svg xmlns="http://www.w3.org/2000/svg" viewBox="0 0 800 600" role="img" aria-label="中国地图上长城山河与小朋友">
  <rect width="800" height="600" fill="#fef9ed"/>
  <text x="400" y="55" text-anchor="middle" font-family="serif" font-size="30" font-weight="bold" fill="#7a3b14">我爱我们的祖国</text>
  <path d="M120 380c40-30 80-35 130-20 35 10 65 30 100 25 45-6 80-30 120-25 50 6 90 30 140 20 40-8 70-25 100-45l5 200H120z" fill="#6a8d3f" opacity="0.3"/>
  <path d="M120 430c50-20 100-15 150 5 40 15 80 15 120 0 50-20 100-20 150-5 45 13 85 10 130-5l5 155H120z" fill="#4a6a2f" opacity="0.25"/>
  <path d="M150 250 L180 200 L210 250 L240 210 L270 250 L300 220 L330 250" stroke="#8d5a36" stroke-width="6" fill="none"/>
  <rect x="160" y="245" width="20" height="15" fill="#c8843a"/>
  <rect x="220" y="245" width="20" height="15" fill="#c8843a"/>
  <rect x="280" y="245" width="20" height="15" fill="#c8843a"/>
  <path d="M400 180c20-15 40-18 60-10 15 6 25 18 30 35 5 18 0 35-15 48-18 15-42 15-60 2-20-15-28-40-15-65z" fill="#a8d0e8" opacity="0.5" stroke="#7ab8d8" stroke-width="2"/>
  <path d="M420 250c30-8 55-5 75 10 15 10 25 25 20 45-5 18-20 28-40 30-25 2-45-10-55-30-8-18-8-38 0-55z" fill="#a8d0e8" opacity="0.4" stroke="#7ab8d8" stroke-width="2"/>
  <path d="M470 300 Q520 320 570 300 Q620 280 670 300 Q700 315 720 340" stroke="#7ab8d8" stroke-width="5" fill="none"/>
  <path d="M470 315 Q520 335 570 315 Q620 295 670 315 Q700 330 720 355" stroke="#7ab8d8" stroke-width="4" fill="none" opacity="0.6"/>
  <circle cx="620" cy="130" r="35" fill="#e07856" opacity="0.7"/>
  <circle cx="200" cy="400" r="20" fill="#e07856"/>
  <rect x="185" y="415" width="30" height="40" rx="6" fill="#c84a3a"/>
  <rect x="190" y="450" width="8" height="30" fill="#8d5a36"/>
  <rect x="205" y="450" width="8" height="30" fill="#8d5a36"/>
  <circle cx="250" cy="410" r="18" fill="#c8843a"/>
  <rect x="237" y="425" width="26" height="35" rx="6" fill="#6a8d3f"/>
  <text x="400" y="540" text-anchor="middle" font-family="serif" font-size="18" fill="#4a6a2f">辽阔的祖国 壮美的山河</text>
</svg>
