<svg xmlns="http://www.w3.org/2000/svg" viewBox="0 0 800 600" role="img" aria-label="小朋友用衣服遮挡风雨中蔷薇花">
  <rect width="800" height="600" fill="#fef9ed"/>
  <text x="400" y="55" text-anchor="middle" font-family="serif" font-size="30" font-weight="bold" fill="#7a3b14">我不是最弱小的</text>
  <path d="M100 150 Q200 130 300 150 Q400 170 500 150 Q600 130 700 150" stroke="#a8d0e8" stroke-width="3" fill="none" opacity="0.5"/>
  <line x1="150" y1="120" x2="145" y2="180" stroke="#7ab8d8" stroke-width="2"/>
  <line x1="250" y1="110" x2="245" y2="175" stroke="#7ab8d8" stroke-width="2"/>
  <line x1="350" y1="115" x2="345" y2="178" stroke="#7ab8d8" stroke-width="2"/>
  <line x1="550" y1="120" x2="545" y2="180" stroke="#7ab8d8" stroke-width="2"/>
  <line x1="650" y1="115" x2="645" y2="175" stroke="#7ab8d8" stroke-width="2"/>
  <line x1="180" y1="200" x2="175" y2="260" stroke="#7ab8d8" stroke-width="2"/>
  <line x1="580" y1="200" x2="575" y2="260" stroke="#7ab8d8" stroke-width="2"/>
  <path d="M0 400c100-15 200-10 300 5s200 10 300 0 150-5 200 0v200H0z" fill="#6a8d3f" opacity="0.25"/>
  <line x1="400" y1="380" x2="400" y2="450" stroke="#4a6a2f" stroke-width="4"/>
  <line x1="400" y1="400" x2="375" y2="420" stroke="#4a6a2f" stroke-width="3"/>
  <line x1="400" y1="410" x2="425" y2="425" stroke="#4a6a2f" stroke-width="3"/>
  <circle cx="400" cy="370" r="18" fill="#e07856"/>
  <circle cx="400" cy="370" r="10" fill="#c84a3a"/>
  <ellipse cx="375" cy="418" rx="10" ry="5" fill="#6a8d3f" transform="rotate(-30 375 418)"/>
  <ellipse cx="425" cy="423" rx="10" ry="5" fill="#6a8d3f" transform="rotate(30 425 423)"/>
  <path d="M340 280 Q370 260 400 280 Q430 260 460 280 L455 340 Q400 360 345 340z" fill="#7ab8d8" opacity="0.7" stroke="#8d5a36" stroke-width="2"/>
  <circle cx="400" cy="230" r="25" fill="#e07856"/>
  <rect x="375" y="250" width="50" height="40" rx="8" fill="#c84a3a"/>
  <path d="M375 250 L340 285 L345 295 L380 260z" fill="#c84a3a"/>
  <path d="M425 250 L460 285 L455 295 L420 260z" fill="#c84a3a"/>
  <rect x="392" y="285" width="8" height="30" fill="#8d5a36"/>
  <rect x="402" y="285" width="8" height="30" fill="#8d5a36"/>
  <circle cx="393" cy="225" r="3" fill="#7a3b14"/>
  <circle cx="407" cy="225" r="3" fill="#7a3b14"/>
  <path d="M393 238 Q400 243 407 238" stroke="#7a3b14" stroke-width="2" fill="none"/>
  <text x="400" y="540" text-anchor="middle" font-family="serif" font-size="18" fill="#4a6a2f">保护弱小 就是强大</text>
</svg>
