<svg xmlns="http://www.w3.org/2000/svg" viewBox="0 0 800 600" role="img" aria-label="雨点落在花朵草地和小河上">
  <rect width="800" height="600" fill="#fef9ed"/>
  <text x="400" y="55" text-anchor="middle" font-family="serif" font-size="30" font-weight="bold" fill="#7a3b14">小雨点</text>
  <ellipse cx="200" cy="130" rx="80" ry="35" fill="#a8d0e8" opacity="0.4"/>
  <ellipse cx="500" cy="110" rx="100" ry="40" fill="#a8d0e8" opacity="0.3"/>
  <ellipse cx="650" cy="140" rx="70" ry="30" fill="#a8d0e8" opacity="0.35"/>
  <line x1="150" y1="170" x2="145" y2="220" stroke="#7ab8d8" stroke-width="3"/>
  <ellipse cx="143" cy="225" rx="4" ry="6" fill="#7ab8d8"/>
  <line x1="250" y1="165" x2="245" y2="215" stroke="#7ab8d8" stroke-width="3"/>
  <ellipse cx="243" cy="220" rx="4" ry="6" fill="#7ab8d8"/>
  <line x1="350" y1="160" x2="345" y2="210" stroke="#7ab8d8" stroke-width="3"/>
  <ellipse cx="343" cy="215" rx="4" ry="6" fill="#7ab8d8"/>
  <line x1="450" y1="155" x2="445" y2="205" stroke="#7ab8d8" stroke-width="3"/>
  <ellipse cx="443" cy="210" rx="4" ry="6" fill="#7ab8d8"/>
  <line x1="550" y1="160" x2="545" y2="210" stroke="#7ab8d8" stroke-width="3"/>
  <ellipse cx="543" cy="215" rx="4" ry="6" fill="#7ab8d8"/>
  <line x1="650" y1="165" x2="645" y2="215" stroke="#7ab8d8" stroke-width="3"/>
  <ellipse cx="643" cy="220" rx="4" ry="6" fill="#7ab8d8"/>
  <line x1="200" y1="180" x2="195" y2="230" stroke="#7ab8d8" stroke-width="2"/>
  <ellipse cx="193" cy="235" rx="3" ry="5" fill="#7ab8d8"/>
  <line x1="400" y1="175" x2="395" y2="225" stroke="#7ab8d8" stroke-width="2"/>
  <ellipse cx="393" cy="230" rx="3" ry="5" fill="#7ab8d8"/>
  <line x1="600" y1="180" x2="595" y2="230" stroke="#7ab8d8" stroke-width="2"/>
  <ellipse cx="593" cy="235" rx="3" ry="5" fill="#7ab8d8"/>
  <path d="M0 400c100-15 200-10 300 5s200 10 300 0 150-5 200 0v200H0z" fill="#6a8d3f" opacity="0.25"/>
  <line x1="150" y1="400" x2="150" y2="450" stroke="#4a6a2f" stroke-width="3"/>
  <circle cx="150" cy="390" r="15" fill="#e07856"/>
  <circle cx="150" cy="390" r="8" fill="#c84a3a"/>
  <ellipse cx="135" cy="395" rx="8" ry="4" fill="#6a8d3f" transform="rotate(-30 135 395)"/>
  <ellipse cx="165" cy="395" rx="8" ry="4" fill="#6a8d3f" transform="rotate(30 165 395)"/>
  <line x1="300" y1="395" x2="300" y2="445" stroke="#4a6a2f" stroke-width="3"/>
  <circle cx="300" cy="385" r="15" fill="#c8843a"/>
  <circle cx="300" cy="385" r="8" fill="#e07856"/>
  <ellipse cx="285" cy="390" rx="8" ry="4" fill="#6a8d3f" transform="rotate(-30 285 390)"/>
  <ellipse cx="315" cy="390" rx="8" ry="4" fill="#6a8d3f" transform="rotate(30 315 390)"/>
  <path d="M450 410 Q500 400 550 410 Q600 420 650 410" stroke="#7ab8d8" stroke-width="8" fill="none"/>
  <path d="M450 420 Q500 410 550 420 Q600 430 650 420" stroke="#a8d0e8" stroke-width="5" fill="none" opacity="0.6"/>
  <circle cx="480" cy="405" r="3" fill="#fff" opacity="0.8"/>
  <circle cx="530" cy="410" r="3" fill="#fff" opacity="0.8"/>
  <circle cx="600" cy="408" r="3" fill="#fff" opacity="0.8"/>
  <text x="400" y="510" text-anchor="middle" font-family="serif" font-size="18" fill="#7a3b14">滴答 滴答 落到哪里啦</text>
  <text x="400" y="540" text-anchor="middle" font-family="serif" font-size="16" fill="#4a6a2f">树叶上 花朵里 小河中</text>
</svg>
