<svg xmlns="http://www.w3.org/2000/svg" viewBox="0 0 800 600" role="img" aria-label="石缝中钻出一株嫩绿小草向阳生长">
  <rect width="800" height="600" fill="#fef9ed"/>
  <rect x="0" y="0" width="800" height="340" fill="#4a90b8" opacity="0.1"/>
  <circle cx="660" cy="110" r="42" fill="#e8a838" opacity="0.75"/>
  <circle cx="660" cy="110" r="28" fill="#e8a838" opacity="0.95"/>
  <g stroke="#e8a838" stroke-width="2.5" opacity="0.5" stroke-linecap="round">
    <line x1="660" y1="56" x2="660" y2="42"/>
    <line x1="660" y1="164" x2="660" y2="178"/>
    <line x1="606" y1="110" x2="592" y2="110"/>
    <line x1="714" y1="110" x2="728" y2="110"/>
    <line x1="622" y1="72" x2="612" y2="62"/>
    <line x1="698" y1="148" x2="708" y2="158"/>
  </g>
  <g stroke="#e8a838" stroke-width="1.5" opacity="0.3" stroke-dasharray="6 6">
    <line x1="600" y1="150" x2="400" y2="320"/>
  </g>
  <rect x="0" y="380" width="800" height="220" fill="#8d6f47" opacity="0.25"/>
  <rect x="0" y="420" width="800" height="180" fill="#8d6f47" opacity="0.2"/>
  <g transform="translate(400 400)">
    <path d="M-130 20 Q-150 -30 -110 -50 Q-70 -64 -40 -40 Q-30 -20 -40 20 Z" fill="#9aa0a6" stroke="#6a7078" stroke-width="2"/>
    <path d="M-120 -10 Q-100 -30 -80 -20" stroke="#c0c4c8" stroke-width="1.5" fill="none" opacity="0.6"/>
    <path d="M130 20 Q150 -30 110 -50 Q70 -64 40 -40 Q30 -20 40 20 Z" fill="#8a9096" stroke="#5a6068" stroke-width="2"/>
    <path d="M120 -5 Q100 -25 80 -18" stroke="#b0b4b8" stroke-width="1.5" fill="none" opacity="0.6"/>
    <path d="M-40 20 Q-30 -20 -10 -34 L10 -34 Q30 -20 40 20 Z" fill="#5a5048" opacity="0.5"/>
  </g>
  <g transform="translate(400 380)">
    <g stroke="#8d6f47" stroke-width="2" fill="none" opacity="0.7">
      <path d="M0 20 Q-20 40 -40 60"/>
      <path d="M0 20 Q20 40 40 60"/>
      <path d="M0 20 Q-8 50 -16 80"/>
      <path d="M0 20 Q8 50 16 80"/>
      <path d="M0 20 Q0 50 0 85"/>
    </g>
    <path d="M0 20 Q-2 -10 0 -50" stroke="#2d6a4f" stroke-width="4" fill="none"/>
    <ellipse cx="-16" cy="-44" rx="12" ry="20" fill="#2d6a4f" opacity="0.85" transform="rotate(-25 -16 -44)"/>
    <ellipse cx="16" cy="-44" rx="12" ry="20" fill="#3d8a5f" opacity="0.85" transform="rotate(25 16 -44)"/>
    <path d="M-16 -58 Q-16 -44 -16 -30" stroke="#1d4a2f" stroke-width="1" fill="none" opacity="0.7"/>
    <path d="M16 -58 Q16 -44 16 -30" stroke="#1d4a2f" stroke-width="1" fill="none" opacity="0.7"/>
    <circle cx="-16" cy="-50" r="3" fill="#4a90b8" opacity="0.8"/>
    <circle cx="16" cy="-48" r="2.5" fill="#4a90b8" opacity="0.7"/>
  </g>
  <g transform="translate(120 440)">
    <rect x="-40" y="0" width="80" height="30" fill="#8d6f47" opacity="0.4" rx="4"/>
    <path d="M-20 0 Q-22 -30 -28 -50" stroke="#2d6a4f" stroke-width="3" fill="none"/>
    <path d="M-8 0 Q-8 -34 -12 -56" stroke="#2d6a4f" stroke-width="3" fill="none"/>
    <path d="M6 0 Q8 -32 4 -54" stroke="#2d6a4f" stroke-width="3" fill="none"/>
    <path d="M20 0 Q22 -28 28 -46" stroke="#2d6a4f" stroke-width="3" fill="none"/>
    <ellipse cx="-28" cy="-50" rx="5" ry="10" fill="#3d8a5f"/>
    <ellipse cx="-12" cy="-56" rx="5" ry="10" fill="#3d8a5f"/>
    <ellipse cx="4" cy="-54" rx="5" ry="10" fill="#3d8a5f"/>
    <ellipse cx="28" cy="-46" rx="5" ry="10" fill="#3d8a5f"/>
    <text x="0" y="-70" text-anchor="middle" font-family="serif" font-size="11" fill="#7a3b14" opacity="0.7">沃土里的草</text>
  </g>
  <text x="460" y="370" font-family="serif" font-size="12" fill="#2d6a4f">向上顶</text>
  <text x="450" y="470" font-family="serif" font-size="12" fill="#8d6f47">深深扎根</text>
  <text x="400" y="50" text-anchor="middle" font-family="serif" font-size="30" font-weight="bold" fill="#2d6a4f">小草的梦想</text>
  <text x="400" y="560" text-anchor="middle" font-family="serif" font-size="16" fill="#7a3b14">没人在意的小草，心里也藏着一个春天</text>
</svg>
