<svg xmlns="http://www.w3.org/2000/svg" viewBox="0 0 800 600" role="img" aria-label="中国五十六个民族人物形象">
  <rect width="800" height="600" fill="#fef9ed"/>
  <text x="400" y="55" text-anchor="middle" font-family="serif" font-size="30" font-weight="bold" fill="#7a3b14">中国有多少个民族</text>
  <circle cx="120" cy="200" r="22" fill="#e07856"/>
  <rect x="105" y="220" width="30" height="45" rx="5" fill="#c84a3a"/>
  <path d="M110 200 Q120 185 130 200" fill="#8d5a36"/>
  <text x="120" y="285" text-anchor="middle" font-family="serif" font-size="11" fill="#7a3b14">蒙古族</text>
  <circle cx="220" cy="195" r="22" fill="#c8843a"/>
  <rect x="205" y="215" width="30" height="50" rx="5" fill="#6a8d3f"/>
  <path d="M200 185 Q220 170 240 185" fill="#8d5a36"/>
  <ellipse cx="220" cy="180" rx="15" ry="8" fill="#e07856"/>
  <text x="220" y="285" text-anchor="middle" font-family="serif" font-size="11" fill="#7a3b14">藏族</text>
  <circle cx="320" cy="200" r="22" fill="#e07856"/>
  <rect x="305" y="220" width="30" height="45" rx="5" fill="#7ab8d8"/>
  <path d="M310 195 Q320 180 330 195" fill="#8d5a36"/>
  <rect x="315" y="178" width="10" height="10" fill="#c84a3a"/>
  <text x="320" y="285" text-anchor="middle" font-family="serif" font-size="11" fill="#7a3b14">维吾尔族</text>
  <circle cx="420" cy="195" r="22" fill="#c8843a"/>
  <rect x="405" y="215" width="30" height="50" rx="5" fill="#c84a3a"/>
  <path d="M400 185 Q420 170 440 185" fill="#8d5a36"/>
  <circle cx="410" cy="175" r="5" fill="#e07856"/>
  <circle cx="430" cy="175" r="5" fill="#e07856"/>
  <text x="420" y="285" text-anchor="middle" font-family="serif" font-size="11" fill="#7a3b14">苗族</text>
  <circle cx="520" cy="200" r="22" fill="#e07856"/>
  <rect x="505" y="220" width="30" height="45" rx="5" fill="#4a6a2f"/>
  <path d="M510 200 Q520 185 530 200" fill="#8d5a36"/>
  <text x="520" y="285" text-anchor="middle" font-family="serif" font-size="11" fill="#7a3b14">彝族</text>
  <circle cx="620" cy="195" r="22" fill="#c8843a"/>
  <rect x="605" y="215" width="30" height="50" rx="5" fill="#e07856"/>
  <path d="M600 185 Q620 170 640 185" fill="#8d5a36"/>
  <text x="620" y="285" text-anchor="middle" font-family="serif" font-size="11" fill="#7a3b14">壮族</text>
  <circle cx="720" cy="200" r="22" fill="#e07856"/>
  <rect x="705" y="220" width="30" height="45" rx="5" fill="#7ab8d8"/>
  <path d="M710 200 Q720 185 730 200" fill="#8d5a36"/>
  <text x="720" y="285" text-anchor="middle" font-family="serif" font-size="11" fill="#7a3b14">满族</text>
  <circle cx="170" cy="380" r="22" fill="#c8843a"/>
  <rect x="155" y="400" width="30" height="50" rx="5" fill="#c84a3a"/>
  <path d="M160 380 Q170 365 180 380" fill="#8d5a36"/>
  <text x="170" y="470" text-anchor="middle" font-family="serif" font-size="11" fill="#7a3b14">回族</text>
  <circle cx="320" cy="380" r="22" fill="#e07856"/>
  <rect x="305" y="400" width="30" height="50" rx="5" fill="#6a8d3f"/>
  <path d="M300 370 Q320 355 340 370" fill="#8d5a36"/>
  <text x="320" y="470" text-anchor="middle" font-family="serif" font-size="11" fill="#7a3b14">朝鲜族</text>
  <circle cx="470" cy="380" r="22" fill="#c8843a"/>
  <rect x="455" y="400" width="30" height="50" rx="5" fill="#e07856"/>
  <path d="M450 370 Q470 355 490 370" fill="#8d5a36"/>
  <text x="470" y="470" text-anchor="middle" font-family="serif" font-size="11" fill="#7a3b14">傣族</text>
  <circle cx="620" cy="380" r="22" fill="#e07856"/>
  <rect x="605" y="400" width="30" height="50" rx="5" fill="#7ab8d8"/>
  <path d="M600 370 Q620 355 640 370" fill="#8d5a36"/>
  <text x="620" y="470" text-anchor="middle" font-family="serif" font-size="11" fill="#7a3b14">侗族</text>
  <text x="400" y="520" text-anchor="middle" font-family="serif" font-size="20" fill="#c84a3a">五十六个民族</text>
  <text x="400" y="550" text-anchor="middle" font-family="serif" font-size="16" fill="#4a6a2f">像石榴籽一样紧紧抱在一起</text>
</svg>
