<svg xmlns="http://www.w3.org/2000/svg" viewBox="0 0 800 600" role="img" aria-label="外婆带孩子做家务温馨场景">
  <rect width="800" height="600" fill="#fef9ed"/>
  <text x="400" y="55" text-anchor="middle" font-family="serif" font-size="30" font-weight="bold" fill="#7a3b14">中国外婆带孩子的传统</text>
  <rect x="250" y="130" width="300" height="200" rx="5" fill="#fff" stroke="#8d5a36" stroke-width="3"/>
  <polygon points="240,130 400,80 560,130" fill="#c84a3a" opacity="0.6"/>
  <rect x="350" y="200" width="30" height="40" fill="#8d5a36"/>
  <rect x="340" y="190" width="50" height="15" fill="#c8843a"/>
  <rect x="420" y="200" width="30" height="40" fill="#8d5a36"/>
  <rect x="410" y="190" width="50" height="15" fill="#c8843a"/>
  <circle cx="300" cy="260" r="25" fill="#c8843a"/>
  <path d="M278 250 Q300 235 322 250" fill="#8d5a36"/>
  <ellipse cx="300" cy="245" rx="20" ry="8" fill="#8d5a36" opacity="0.5"/>
  <rect x="280" y="280" width="40" height="45" rx="5" fill="#e07856"/>
  <path d="M285 280 L280 300 L300 300 L295 280" fill="#c84a3a"/>
  <rect x="285" y="320" width="8" height="25" fill="#8d5a36"/>
  <rect x="307" y="320" width="8" height="25" fill="#8d5a36"/>
  <circle cx="295" cy="258" r="2" fill="#7a3b14"/>
  <circle cx="305" cy="258" r="2" fill="#7a3b14"/>
  <path d="M293 268 Q300 272 307 268" stroke="#7a3b14" stroke-width="1.5" fill="none"/>
  <path d="M320 290 Q340 280 360 290" stroke="#8d5a36" stroke-width="2" fill="none"/>
  <circle cx="400" cy="280" r="18" fill="#e07856"/>
  <rect x="385" y="295" width="30" height="35" rx="5" fill="#7ab8d8"/>
  <rect x="390" y="325" width="7" height="22" fill="#8d5a36"/>
  <rect x="403" y="325" width="7" height="22" fill="#8d5a36"/>
  <circle cx="394" cy="278" r="2" fill="#7a3b14"/>
  <circle cx="406" cy="278" r="2" fill="#7a3b14"/>
  <path d="M393 287 Q400 290 407 287" stroke="#7a3b14" stroke-width="1" fill="none"/>
  <ellipse cx="470" cy="290" rx="25" ry="15" fill="#c8843a" opacity="0.4"/>
  <ellipse cx="470" cy="285" rx="20" ry="10" fill="#e07856" opacity="0.3"/>
  <path d="M450 285 Q470 275 490 285" stroke="#8d5a36" stroke-width="1.5" fill="none"/>
  <text x="400" y="365" text-anchor="middle" font-family="serif" font-size="13" fill="#8d5a36">外婆做饭 孩子在旁</text>
  <line x1="100" y1="410" x2="700" y2="410" stroke="#8d5a36" stroke-width="1" stroke-dasharray="5 5" opacity="0.3"/>
  <circle cx="180" cy="450" r="20" fill="#c8843a" opacity="0.3"/>
  <text x="180" y="455" text-anchor="middle" font-family="serif" font-size="12" fill="#7a3b14">送上学</text>
  <circle cx="320" cy="450" r="20" fill="#e07856" opacity="0.3"/>
  <text x="320" y="455" text-anchor="middle" font-family="serif" font-size="12" fill="#7a3b14">做早饭</text>
  <circle cx="460" cy="450" r="20" fill="#6a8d3f" opacity="0.3"/>
  <text x="460" y="455" text-anchor="middle" font-family="serif" font-size="12" fill="#7a3b14">讲故事</text>
  <circle cx="600" cy="450" r="20" fill="#7ab8d8" opacity="0.3"/>
  <text x="600" y="455" text-anchor="middle" font-family="serif" font-size="12" fill="#7a3b14">接放学</text>
  <text x="400" y="520" text-anchor="middle" font-family="serif" font-size="18" fill="#c84a3a">一代传一代的温暖</text>
  <text x="400" y="548" text-anchor="middle" font-family="serif" font-size="16" fill="#4a6a2f">中国家庭最珍贵的传统</text>
</svg>
