<svg xmlns="http://www.w3.org/2000/svg" viewBox="0 0 800 600" role="img" aria-label="孟浩然隐居鹿门山的生活">
  <rect width="800" height="600" fill="#fef9ed"/>
  <text x="400" y="55" text-anchor="middle" font-family="serif" font-size="30" font-weight="bold" fill="#7a3b14">孟浩然为什么隐居</text>
  <path d="M0 350 L80 250 L140 300 L200 220 L260 280 L320 230 L380 290 L440 250 L500 300 L560 240 L620 290 L680 260 L740 300 L800 280 L800 600 L0 600z" fill="#6a8d3f" opacity="0.2"/>
  <path d="M0 400 L100 330 L180 370 L280 320 L380 360 L480 310 L580 350 L680 320 L800 360 L800 600 L0 600z" fill="#4a6a2f" opacity="0.15"/>
  <rect x="300" y="280" width="120" height="80" rx="3" fill="#c8843a" opacity="0.4"/>
  <polygon points="290,280 360,240 430,280" fill="#c84a3a" opacity="0.4"/>
  <rect x="335" y="310" width="25" height="50" fill="#8d5a36" opacity="0.4"/>
  <rect x="310" y="295" width="18" height="15" fill="#a8d0e8" opacity="0.4"/>
  <rect x="372" y="295" width="18" height="15" fill="#a8d0e8" opacity="0.4"/>
  <text x="360" y="385" text-anchor="middle" font-family="serif" font-size="12" fill="#8d5a36">鹿门山 草堂</text>
  <circle cx="200" cy="200" r="20" fill="#e07856" opacity="0.4"/>
  <rect x="185" y="218" width="30" height="40" rx="4" fill="#7ab8d8" opacity="0.4"/>
  <text x="200" y="280" text-anchor="middle" font-family="serif" font-size="11" fill="#8d5a36">孟浩然</text>
  <path d="M150 180 Q170 165 190 180" stroke="#8d5a36" stroke-width="1.5" fill="none" opacity="0.3"/>
  <path d="M500 180 Q520 165 540 180" stroke="#8d5a36" stroke-width="1.5" fill="none" opacity="0.3"/>
  <ellipse cx="520" cy="190" rx="15" ry="8" fill="#6a8d3f" opacity="0.3" transform="rotate(-20 520 190)"/>
  <ellipse cx="160" cy="195" rx="12" ry="7" fill="#4a6a2f" opacity="0.3" transform="rotate(15 160 195)"/>
  <path d="M100 420 Q150 410 200 420 Q250 430 300 420" stroke="#7ab8d8" stroke-width="4" fill="none" opacity="0.3"/>
  <path d="M500 420 Q550 410 600 420 Q650 430 700 420" stroke="#7ab8d8" stroke-width="4" fill="none" opacity="0.3"/>
  <line x1="100" y1="450" x2="700" y2="450" stroke="#8d5a36" stroke-width="1" stroke-dasharray="5 5" opacity="0.3"/>
  <circle cx="180" cy="480" r="15" fill="#c84a3a" opacity="0.15"/>
  <text x="180" y="485" text-anchor="middle" font-family="serif" font-size="11" fill="#7a3b14">考科举</text>
  <text x="180" y="505" text-anchor="middle" font-family="serif" font-size="10" fill="#8d5a36">没考上</text>
  <circle cx="320" cy="480" r="15" fill="#e07856" opacity="0.15"/>
  <text x="320" y="485" text-anchor="middle" font-family="serif" font-size="11" fill="#7a3b14">去长安</text>
  <text x="320" y="505" text-anchor="middle" font-family="serif" font-size="10" fill="#8d5a36">没机会</text>
  <circle cx="460" cy="480" r="15" fill="#6a8d3f" opacity="0.15"/>
  <text x="460" y="485" text-anchor="middle" font-family="serif" font-size="11" fill="#7a3b14">回襄阳</text>
  <text x="460" y="505" text-anchor="middle" font-family="serif" font-size="10" fill="#8d5a36">隐居</text>
  <circle cx="600" cy="480" r="15" fill="#7ab8d8" opacity="0.15"/>
  <text x="600" y="485" text-anchor="middle" font-family="serif" font-size="11" fill="#7a3b14">写诗</text>
  <text x="600" y="505" text-anchor="middle" font-family="serif" font-size="10" fill="#8d5a36">千古留名</text>
  <path d="M195 480 L305 480 M335 480 L445 480 M475 480 L585 480" stroke="#8d5a36" stroke-width="1.5" opacity="0.3"/>
  <text x="400" y="545" text-anchor="middle" font-family="serif" font-size="16" fill="#4a6a2f">找到适合自己的路 也是成功</text>
</svg>
