<svg xmlns="http://www.w3.org/2000/svg" viewBox="0 0 800 600" role="img" aria-label="各有各的桃花源">
  <rect width="800" height="600" fill="#fef9ed"/>
  <rect x="0" y="0" width="800" height="92" fill="#c0392b" opacity="0.16"/>
  <text x="400" y="58" text-anchor="middle" font-family="serif" font-size="32" font-weight="bold" fill="#7a3b14">各有各的桃花源</text>
  <line x1="320" y1="80" x2="480" y2="80" stroke="#c0392b" stroke-width="3"/>

  <g opacity="0.8">
    <polygon points="400,150 330,210 470,210" fill="#c0392b"/>
    <rect x="340" y="210" width="120" height="40" fill="#c0392b" opacity="0.85"/>
    <rect x="350" y="250" width="100" height="60" fill="#fff" stroke="#c0392b" stroke-width="2"/>
    <rect x="360" y="310" width="80" height="120" fill="#c0392b" opacity="0.7"/>
    <rect x="330" y="430" width="140" height="18" fill="#c0392b"/>
  </g>
  <g opacity="0.4">
    <rect x="180" y="320" width="60" height="120" fill="#c0392b"/>
    <rect x="560" y="320" width="60" height="120" fill="#c0392b"/>
  </g>
  <text x="400" y="380" text-anchor="middle" font-family="serif" font-size="34" fill="#fff" opacity="0.9">文</text>
  <g opacity="0.85"><ellipse cx="120" cy="500" rx="26" ry="16" fill="none" stroke="#c0392b" stroke-width="5"/><ellipse cx="168" cy="500" rx="26" ry="16" fill="none" stroke="#c0392b" stroke-width="5"/><ellipse cx="632" cy="500" rx="26" ry="16" fill="none" stroke="#c0392b" stroke-width="5"/><ellipse cx="680" cy="500" rx="26" ry="16" fill="none" stroke="#c0392b" stroke-width="5"/></g>
  <text x="400" y="566" text-anchor="middle" font-family="serif" font-size="18" fill="#7a3b14" opacity="0.85">连珠小故事：各有各的桃花源</text>
</svg>