<svg xmlns="http://www.w3.org/2000/svg" viewBox="0 0 800 600" role="img" aria-label="雨水汇成溪流再汇成河流">
  <rect width="800" height="600" fill="#fef9ed"/>
  <text x="400" y="55" text-anchor="middle" font-family="serif" font-size="30" font-weight="bold" fill="#7a3b14">河流是怎么形成的</text>
  <ellipse cx="200" cy="110" rx="60" ry="25" fill="#a8d0e8" opacity="0.4"/>
  <ellipse cx="500" cy="100" rx="80" ry="30" fill="#a8d0e8" opacity="0.3"/>
  <ellipse cx="650" cy="120" rx="50" ry="20" fill="#a8d0e8" opacity="0.35"/>
  <line x1="180" y1="140" x2="175" y2="180" stroke="#7ab8d8" stroke-width="2"/>
  <ellipse cx="173" cy="183" rx="3" ry="5" fill="#7ab8d8"/>
  <line x1="220" y1="140" x2="215" y2="180" stroke="#7ab8d8" stroke-width="2"/>
  <ellipse cx="213" cy="183" rx="3" ry="5" fill="#7ab8d8"/>
  <line x1="480" y1="135" x2="475" y2="175" stroke="#7ab8d8" stroke-width="2"/>
  <ellipse cx="473" cy="178" rx="3" ry="5" fill="#7ab8d8"/>
  <line x1="520" y1="135" x2="515" y2="175" stroke="#7ab8d8" stroke-width="2"/>
  <ellipse cx="513" cy="178" rx="3" ry="5" fill="#7ab8d8"/>
  <line x1="630" y1="145" x2="625" y2="185" stroke="#7ab8d8" stroke-width="2"/>
  <ellipse cx="623" cy="188" rx="3" ry="5" fill="#7ab8d8"/>
  <line x1="670" y1="145" x2="665" y2="185" stroke="#7ab8d8" stroke-width="2"/>
  <ellipse cx="663" cy="188" rx="3" ry="5" fill="#7ab8d8"/>
  <path d="M150 220c20-10 40-12 60-5 10 4 15 10 10 18-5 8-15 10-25 8-15-3-25-10-30-18-2-3 0-3 0-3z" fill="#6a8d3f" opacity="0.3"/>
  <path d="M550 210c20-10 40-12 60-5 10 4 15 10 10 18-5 8-15 10-25 8-15-3-25-10-30-18-2-3 0-3 0-3z" fill="#4a6a2f" opacity="0.3"/>
  <text x="200" y="260" text-anchor="middle" font-family="serif" font-size="13" fill="#8d5a36">雨水落到山上</text>
  <path d="M170 280 Q180 300 175 320 Q170 340 180 360" stroke="#7ab8d8" stroke-width="3" fill="none"/>
  <path d="M210 280 Q220 300 215 320 Q210 340 220 360" stroke="#7ab8d8" stroke-width="3" fill="none"/>
  <path d="M190 280 Q200 305 195 330 Q190 355 200 370" stroke="#a8d0e8" stroke-width="2" fill="none"/>
  <path d="M580 270 Q590 290 585 310 Q580 330 590 350" stroke="#7ab8d8" stroke-width="3" fill="none"/>
  <path d="M620 270 Q630 290 625 310 Q620 330 630 350" stroke="#7ab8d8" stroke-width="3" fill="none"/>
  <text x="600" y="300" text-anchor="middle" font-family="serif" font-size="13" fill="#8d5a36">汇成小溪</text>
  <path d="M150 390 Q250 380 350 395 Q450 410 550 395 Q650 380 720 390" stroke="#7ab8d8" stroke-width="12" fill="none" stroke-linecap="round"/>
  <path d="M150 390 Q250 380 350 395 Q450 410 550 395 Q650 380 720 390" stroke="#a8d0e8" stroke-width="6" fill="none" stroke-linecap="round"/>
  <text x="400" y="430" text-anchor="middle" font-family="serif" font-size="13" fill="#8d5a36">小溪汇成小河</text>
  <path d="M100 500 Q200 490 300 500 Q400 510 500 500 Q600 490 700 500 Q730 505 750 500" stroke="#7ab8d8" stroke-width="20" fill="none" stroke-linecap="round"/>
  <path d="M100 500 Q200 490 300 500 Q400 510 500 500 Q600 490 700 500 Q730 505 750 500" stroke="#a8d0e8" stroke-width="12" fill="none" stroke-linecap="round"/>
  <text x="400" y="545" text-anchor="middle" font-family="serif" font-size="14" fill="#7a3b14">大河奔向大海</text>
</svg>
