<svg xmlns="http://www.w3.org/2000/svg" viewBox="0 0 800 600" role="img" aria-label="小蚂蚁搬运大食物与大力士">
  <rect width="800" height="600" fill="#fef9ed"/>
  <text x="400" y="55" text-anchor="middle" font-family="serif" font-size="30" font-weight="bold" fill="#7a3b14">自然界中的弱小与强大</text>
  <line x1="400" y1="90" x2="400" y2="560" stroke="#8d5a36" stroke-width="2" stroke-dasharray="8 6" opacity="0.3"/>
  <text x="200" y="110" text-anchor="middle" font-family="serif" font-size="18" fill="#7a3b14">弱小但厉害</text>
  <ellipse cx="150" cy="200" rx="20" ry="12" fill="#8d5a36"/>
  <circle cx="135" cy="195" r="10" fill="#8d5a36"/>
  <circle cx="130" cy="190" r="2" fill="#7a3b14"/>
  <line x1="145" y1="190" x2="140" y2="175" stroke="#8d5a36" stroke-width="2"/>
  <line x1="155" y1="190" x2="160" y2="175" stroke="#8d5a36" stroke-width="2"/>
  <ellipse cx="170" cy="200" rx="8" ry="5" fill="#8d5a36"/>
  <line x1="145" y1="210" x2="140" y2="225" stroke="#8d5a36" stroke-width="2"/>
  <line x1="155" y1="210" x2="160" y2="225" stroke="#8d5a36" stroke-width="2"/>
  <ellipse cx="250" cy="180" rx="25" ry="18" fill="#e07856" opacity="0.5"/>
  <circle cx="240" cy="170" r="8" fill="#c84a3a" opacity="0.5"/>
  <path d="M230 165 L225 158 L235 162z" fill="#c84a3a" opacity="0.5"/>
  <path d="M250 165 L255 158 L245 162z" fill="#c84a3a" opacity="0.5"/>
  <line x1="175" y1="195" x2="225" y2="180" stroke="#8d5a36" stroke-width="2"/>
  <text x="200" y="260" text-anchor="middle" font-family="serif" font-size="13" fill="#8d5a36">蚂蚁举起大食物</text>
  <ellipse cx="150" cy="350" rx="30" ry="20" fill="#a8d0e8" opacity="0.4"/>
  <ellipse cx="150" cy="335" rx="20" ry="15" fill="#7ab8d8" opacity="0.4"/>
  <path d="M135 330 L130 320 L138 327z" fill="#7ab8d8" opacity="0.4"/>
  <path d="M165 330 L170 320 L162 327z" fill="#7ab8d8" opacity="0.4"/>
  <circle cx="143" cy="335" r="2" fill="#7a3b14"/>
  <circle cx="157" cy="335" r="2" fill="#7a3b14"/>
  <path d="M140 345 Q150 350 160 345" stroke="#7a3b14" stroke-width="1" fill="none"/>
  <text x="200" y="400" text-anchor="middle" font-family="serif" font-size="13" fill="#8d5a36">水母活了五亿年</text>
  <path d="M120 460 Q140 440 160 460 Q180 440 200 460 Q220 440 240 460 Q260 440 280 460" stroke="#6a8d3f" stroke-width="3" fill="none"/>
  <line x1="140" y1="460" x2="138" y2="480" stroke="#4a6a2f" stroke-width="2"/>
  <line x1="180" y1="460" x2="178" y2="480" stroke="#4a6a2f" stroke-width="2"/>
  <line x1="220" y1="460" x2="218" y2="480" stroke="#4a6a2f" stroke-width="2"/>
  <line x1="260" y1="460" x2="258" y2="480" stroke="#4a6a2f" stroke-width="2"/>
  <text x="200" y="510" text-anchor="middle" font-family="serif" font-size="13" fill="#8d5a36">小草弯腰再站起来</text>
  <text x="600" y="110" text-anchor="middle" font-family="serif" font-size="18" fill="#7a3b14">强大也会脆弱</text>
  <ellipse cx="600" cy="200" rx="50" ry="35" fill="#c8843a" opacity="0.3"/>
  <ellipse cx="585" cy="185" rx="25" ry="20" fill="#c8843a" opacity="0.3"/>
  <path d="M565 175 L555 165 L570 170z" fill="#8d5a36" opacity="0.3"/>
  <path d="M605 175 L615 165 L600 170z" fill="#8d5a36" opacity="0.3"/>
  <circle cx="578" cy="183" r="3" fill="#7a3b14"/>
  <circle cx="592" cy="183" r="3" fill="#7a3b14"/>
  <path d="M575 195 Q585 200 595 195" stroke="#7a3b14" stroke-width="1.5" fill="none"/>
  <text x="600" y="260" text-anchor="middle" font-family="serif" font-size="13" fill="#8d5a36">老虎也需要保护</text>
  <ellipse cx="600" cy="350" rx="40" ry="30" fill="#e07856" opacity="0.2"/>
  <circle cx="585" cy="340" r="15" fill="#e07856" opacity="0.2"/>
  <circle cx="580" cy="337" r="3" fill="#7a3b14"/>
  <circle cx="590" cy="337" r="3" fill="#7a3b14"/>
  <text x="600" y="400" text-anchor="middle" font-family="serif" font-size="13" fill="#8d5a36">大象也会害怕</text>
  <path d="M520 470 Q560 450 600 470 Q640 490 680 470" stroke="#7ab8d8" stroke-width="4" fill="none" opacity="0.3"/>
  <ellipse cx="600" cy="480" rx="30" ry="15" fill="#a8d0e8" opacity="0.2"/>
  <text x="600" y="510" text-anchor="middle" font-family="serif" font-size="13" fill="#8d5a36">大鱼也会消失</text>
  <text x="400" y="555" text-anchor="middle" font-family="serif" font-size="16" fill="#4a6a2f">弱小不是永远 强大也不是</text>
</svg>
