<svg xmlns="http://www.w3.org/2000/svg" viewBox="0 0 800 600" role="img" aria-label="宿新市徐公店与绝句两幅画面">
  <rect width="800" height="600" fill="#fef9ed"/>
  <text x="400" y="55" text-anchor="middle" font-family="serif" font-size="30" font-weight="bold" fill="#7a3b14">宿新市徐公店和绝句</text>
  <line x1="400" y1="90" x2="400" y2="560" stroke="#8d5a36" stroke-width="2" stroke-dasharray="8 6" opacity="0.3"/>
  <text x="200" y="105" text-anchor="middle" font-family="serif" font-size="16" fill="#7a3b14">杨万里 旅途所见</text>
  <line x1="80" y1="180" x2="320" y2="180" stroke="#8d5a36" stroke-width="2"/>
  <line x1="80" y1="210" x2="320" y2="210" stroke="#8d5a36" stroke-width="2"/>
  <line x1="80" y1="240" x2="320" y2="240" stroke="#8d5a36" stroke-width="2"/>
  <line x1="120" y1="160" x2="120" y2="260" stroke="#8d5a36" stroke-width="2"/>
  <line x1="200" y1="160" x2="200" y2="260" stroke="#8d5a36" stroke-width="2"/>
  <line x1="280" y1="160" x2="280" y2="260" stroke="#8d5a36" stroke-width="2"/>
  <ellipse cx="100" cy="300" rx="40" ry="25" fill="#e07856" opacity="0.3"/>
  <ellipse cx="160" cy="305" rx="35" ry="22" fill="#c8843a" opacity="0.3"/>
  <ellipse cx="220" cy="300" rx="40" ry="25" fill="#e07856" opacity="0.3"/>
  <ellipse cx="280" cy="305" rx="35" ry="22" fill="#c8843a" opacity="0.3"/>
  <circle cx="300" cy="295" r="8" fill="#e07856"/>
  <path d="M293 290 L289 285 L296 288z M307 290 L311 285 L304 288z" fill="#c84a3a"/>
  <circle cx="270" cy="330" r="14" fill="#e07856"/>
  <rect x="259" y="342" width="22" height="30" rx="4" fill="#7ab8d8"/>
  <rect x="263" y="370" width="6" height="22" fill="#8d5a36"/>
  <rect x="271" y="370" width="6" height="22" fill="#8d5a36"/>
  <path d="M284 350 L295 340" stroke="#e07856" stroke-width="3"/>
  <text x="200" y="420" text-anchor="middle" font-family="serif" font-size="13" fill="#7a3b14">儿童急走追黄蝶</text>
  <text x="200" y="445" text-anchor="middle" font-family="serif" font-size="13" fill="#7a3b14">飞入菜花无处寻</text>
  <text x="200" y="480" text-anchor="middle" font-family="serif" font-size="12" fill="#8d5a36">南宋 旅途中小客栈</text>
  <text x="200" y="500" text-anchor="middle" font-family="serif" font-size="12" fill="#8d5a36">清新自然 生活小景</text>
  <text x="600" y="105" text-anchor="middle" font-family="serif" font-size="16" fill="#7a3b14">杜甫 窗前远景</text>
  <rect x="480" y="140" width="240" height="180" rx="5" fill="#fff" stroke="#8d5a36" stroke-width="3"/>
  <line x1="480" y1="230" x2="720" y2="230" stroke="#8d5a36" stroke-width="2"/>
  <line x1="600" y1="140" x2="600" y2="320" stroke="#8d5a36" stroke-width="2"/>
  <line x1="500" y1="280" x2="540" y2="280" stroke="#4a6a2f" stroke-width="4"/>
  <line x1="500" y1="280" x2="500" y2="310" stroke="#4a6a2f" stroke-width="3"/>
  <ellipse cx="515" cy="265" rx="10" ry="6" fill="#6a8d3f" transform="rotate(-20 515 265)"/>
  <ellipse cx="525" cy="255" rx="8" ry="5" fill="#4a6a2f"/>
  <ellipse cx="515" cy="250" rx="8" ry="5" fill="#e07856"/>
  <circle cx="513" cy="248" r="2" fill="#7a3b14"/>
  <ellipse cx="535" cy="252" rx="8" ry="5" fill="#e07856"/>
  <circle cx="533" cy="250" r="2" fill="#7a3b14"/>
  <path d="M620 250 Q640 230 660 250 Q680 230 700 250" stroke="#7ab8d8" stroke-width="2" fill="none" opacity="0.4"/>
  <ellipse cx="650" cy="245" rx="12" ry="6" fill="#fff" stroke="#8d5a36" stroke-width="1"/>
  <ellipse cx="690" cy="240" rx="12" ry="6" fill="#fff" stroke="#8d5a36" stroke-width="1"/>
  <path d="M620 290 Q640 280 660 290 Q680 300 700 290" stroke="#a8d0e8" stroke-width="3" fill="none"/>
  <path d="M610 300 Q640 310 670 300 Q690 295 710 305" stroke="#7ab8d8" stroke-width="2" fill="none" opacity="0.5"/>
  <text x="600" y="360" text-anchor="middle" font-family="serif" font-size="13" fill="#7a3b14">两个黄鹂鸣翠柳</text>
  <text x="600" y="385" text-anchor="middle" font-family="serif" font-size="13" fill="#7a3b14">一行白鹭上青天</text>
  <text x="600" y="420" text-anchor="middle" font-family="serif" font-size="12" fill="#8d5a36">唐代 成都草堂</text>
  <text x="600" y="440" text-anchor="middle" font-family="serif" font-size="12" fill="#8d5a36">难得的安稳时光</text>
  <text x="400" y="510" text-anchor="middle" font-family="serif" font-size="16" fill="#c84a3a">两首诗 两种春天</text>
  <text x="400" y="540" text-anchor="middle" font-family="serif" font-size="14" fill="#4a6a2f">乡村童趣与窗前远景</text>
</svg>
